# xmcd CD database file
#
# Track frame offsets:
#	150
#	27264
#	51285
#	65863
#	89510
#	109477
#	121164
#	141349
#	160212
#	183781
#	201774
#
# Disc length: 2875 seconds
#
# Revision: 0
# Processed by: cddbd v1.5.1PL0 Copyright (c) Steve Scherf et al.
# Submitted via: CDex 1.51
#
DISCID=a10b390b
DTITLE=Katie Bull - Coversations with the Jokers
DYEAR=2003
DGENRE=Jazz
TTITLE0=I Remember You
TTITLE1=My Little Boat
TTITLE2=See Through You
TTITLE3=Moonlight Becomes You
TTITLE4=You and the Night and the Music
TTITLE5=What is This Thing Called Love
TTITLE6=Wave
TTITLE7=Now's the Time
TTITLE8=I'm Glad There is You
TTITLE9=You're Everything
TTITLE10=Like Someone in Love
EXTD=YEAR: 2003
EXTT0=
EXTT1=
EXTT2=
EXTT3=
EXTT4=
EXTT5=
EXTT6=
EXTT7=
EXTT8=
EXTT9=
EXTT10=
PLAYORDER=
